<svg xmlns="http://www.w3.org/2000/svg" width="680" viewBox="0 0 680 300" font-family="sans-serif">
<rect width="680" height="300" fill="#ffffff"/>
<text x="140" y="44" font-size="14" font-weight="500" fill="#2C2C2A" text-anchor="middle">데이터 패럴렐 (DP)</text>
<text x="340" y="44" font-size="14" font-weight="500" fill="#2C2C2A" text-anchor="middle">파이프라인 패럴렐 (PP)</text>
<text x="540" y="44" font-size="14" font-weight="500" fill="#2C2C2A" text-anchor="middle">텐서 패럴렐 (TP)</text>
<rect x="85" y="70" width="50" height="120" rx="4" fill="#E1F5EE" stroke="#0F6E56" stroke-width="0.5"/>
<line x1="85" y1="100" x2="135" y2="100" stroke="#1D9E75" stroke-width="0.5" opacity="0.6"/>
<line x1="85" y1="130" x2="135" y2="130" stroke="#1D9E75" stroke-width="0.5" opacity="0.6"/>
<line x1="85" y1="160" x2="135" y2="160" stroke="#1D9E75" stroke-width="0.5" opacity="0.6"/>
<rect x="145" y="70" width="50" height="120" rx="4" fill="#E1F5EE" stroke="#0F6E56" stroke-width="0.5"/>
<line x1="145" y1="100" x2="195" y2="100" stroke="#1D9E75" stroke-width="0.5" opacity="0.6"/>
<line x1="145" y1="130" x2="195" y2="130" stroke="#1D9E75" stroke-width="0.5" opacity="0.6"/>
<line x1="145" y1="160" x2="195" y2="160" stroke="#1D9E75" stroke-width="0.5" opacity="0.6"/>
<text x="110" y="208" font-size="12" fill="#5F5E5A" text-anchor="middle">GPU 0</text>
<text x="170" y="208" font-size="12" fill="#5F5E5A" text-anchor="middle">GPU 1</text>
<rect x="295" y="70" width="90" height="60" rx="4" fill="#E1F5EE" stroke="#0F6E56" stroke-width="0.5"/>
<line x1="295" y1="100" x2="385" y2="100" stroke="#1D9E75" stroke-width="0.5" opacity="0.6"/>
<rect x="295" y="130" width="90" height="60" rx="4" fill="#EEEDFE" stroke="#534AB7" stroke-width="0.5"/>
<line x1="295" y1="160" x2="385" y2="160" stroke="#7F77DD" stroke-width="0.5" opacity="0.6"/>
<text x="392" y="100" font-size="12" fill="#5F5E5A">GPU 0</text>
<text x="392" y="162" font-size="12" fill="#5F5E5A">GPU 1</text>
<rect x="495" y="70" width="45" height="120" rx="4" fill="#E1F5EE" stroke="#0F6E56" stroke-width="0.5"/>
<rect x="540" y="70" width="45" height="120" rx="4" fill="#EEEDFE" stroke="#534AB7" stroke-width="0.5"/>
<line x1="495" y1="100" x2="585" y2="100" stroke="#888780" stroke-width="0.5" opacity="0.5"/>
<line x1="495" y1="130" x2="585" y2="130" stroke="#888780" stroke-width="0.5" opacity="0.5"/>
<line x1="495" y1="160" x2="585" y2="160" stroke="#888780" stroke-width="0.5" opacity="0.5"/>
<text x="517" y="208" font-size="12" fill="#5F5E5A" text-anchor="middle">GPU 0</text>
<text x="562" y="208" font-size="12" fill="#5F5E5A" text-anchor="middle">GPU 1</text>
<text x="140" y="244" font-size="12" fill="#5F5E5A" text-anchor="middle">쪼갬: 데이터 (배치)</text>
<text x="140" y="266" font-size="12" fill="#5F5E5A" text-anchor="middle">통신: 그라디언트 all-reduce</text>
<text x="340" y="244" font-size="12" fill="#5F5E5A" text-anchor="middle">쪼갬: 레이어 묶음</text>
<text x="340" y="266" font-size="12" fill="#5F5E5A" text-anchor="middle">통신: 경계 activation 전달</text>
<text x="540" y="244" font-size="12" fill="#5F5E5A" text-anchor="middle">쪼갬: 레이어 내부 행렬</text>
<text x="540" y="266" font-size="12" fill="#5F5E5A" text-anchor="middle">통신: 레이어마다 all-reduce</text>
</svg>
