<svg xmlns="http://www.w3.org/2000/svg" width="680" viewBox="0 0 680 510" font-family="sans-serif">
<rect width="680" height="510" fill="#ffffff"/>
<defs>
<marker id="mg" viewBox="0 0 10 10" refX="8" refY="5" markerWidth="6" markerHeight="6" orient="auto-start-reverse"><path d="M2 1L8 5L2 9" fill="none" stroke="#73726c" stroke-width="1.5" stroke-linecap="round" stroke-linejoin="round"/></marker>
</defs>
<rect x="40" y="40" width="600" height="300" rx="12" fill="none" stroke="#888780" stroke-width="0.7" stroke-dasharray="4 4"/>
<text x="60" y="66" font-size="14" font-weight="500" fill="#2C2C2A">NVL72 랙 — Oberon, 액체냉각</text>
<rect x="70" y="110" width="200" height="110" rx="8" fill="#E1F5EE" stroke="#0F6E56" stroke-width="0.5"/>
<text x="170" y="152" font-size="14" font-weight="500" fill="#085041" text-anchor="middle" dominant-baseline="central">컴퓨트 트레이 × 18</text>
<text x="170" y="176" font-size="12" fill="#0F6E56" text-anchor="middle" dominant-baseline="central">Vera 2 + R200 4 / 트레이</text>
<rect x="410" y="110" width="200" height="110" rx="8" fill="#FAECE7" stroke="#993C1D" stroke-width="0.5"/>
<text x="510" y="152" font-size="14" font-weight="500" fill="#712B13" text-anchor="middle" dominant-baseline="central">NVLink 6 스위치 트레이</text>
<text x="510" y="176" font-size="12" fill="#993C1D" text-anchor="middle" dominant-baseline="central">ASIC 4개 · 인네트워크 연산</text>
<line x1="274" y1="165" x2="406" y2="165" stroke="#73726c" stroke-width="1.5" marker-start="url(#mg)" marker-end="url(#mg)"/>
<text x="340" y="143" font-size="12" fill="#5F5E5A" text-anchor="middle">구리 spine 재사용</text>
<text x="340" y="190" font-size="12" fill="#5F5E5A" text-anchor="middle">5,184 케이블</text>
<text x="340" y="262" font-size="12" fill="#5F5E5A" text-anchor="middle">랙 합산: NVLink 260 TB/s · HBM4 20.7TB / 1.6 PB/s</text>
<text x="340" y="284" font-size="12" fill="#5F5E5A" text-anchor="middle">LPDDR5X 54TB — 랙 단위 KV 캐시 풀</text>
<line x1="170" y1="340" x2="170" y2="386" stroke="#73726c" stroke-width="1.5" marker-end="url(#mg)"/>
<line x1="510" y1="340" x2="510" y2="386" stroke="#73726c" stroke-width="1.5" marker-end="url(#mg)"/>
<rect x="80" y="390" width="180" height="56" rx="8" fill="#F1EFE8" stroke="#5F5E5A" stroke-width="0.5"/>
<text x="170" y="408" font-size="14" font-weight="500" fill="#444441" text-anchor="middle" dominant-baseline="central">ConnectX-9 ×2 / GPU</text>
<text x="170" y="428" font-size="12" fill="#5F5E5A" text-anchor="middle" dominant-baseline="central">800G ×2 = 1.6 Tb/s</text>
<rect x="420" y="390" width="180" height="56" rx="8" fill="#F1EFE8" stroke="#5F5E5A" stroke-width="0.5"/>
<text x="510" y="408" font-size="14" font-weight="500" fill="#444441" text-anchor="middle" dominant-baseline="central">BlueField-4 DPU</text>
<text x="510" y="428" font-size="12" fill="#5F5E5A" text-anchor="middle" dominant-baseline="central">800 Gb/s · KV SSD 내장</text>
<line x1="170" y1="446" x2="170" y2="470" stroke="#73726c" stroke-width="1.5" marker-end="url(#mg)"/>
<text x="170" y="490" font-size="12" fill="#5F5E5A" text-anchor="middle">Quantum-X IB / Spectrum-X</text>
<line x1="510" y1="446" x2="510" y2="470" stroke="#73726c" stroke-width="1.5" marker-end="url(#mg)"/>
<text x="510" y="490" font-size="12" fill="#5F5E5A" text-anchor="middle">프런트엔드 — 스토리지·관리망</text>
</svg>
