<svg xmlns="http://www.w3.org/2000/svg" width="680" viewBox="0 0 680 520" font-family="sans-serif">
<rect width="680" height="520" fill="#ffffff"/>
<defs>
<marker id="ma" viewBox="0 0 10 10" refX="8" refY="5" markerWidth="6" markerHeight="6" orient="auto-start-reverse"><path d="M2 1L8 5L2 9" fill="none" stroke="#EF9F27" stroke-width="1.5" stroke-linecap="round" stroke-linejoin="round"/></marker>
<marker id="mt" viewBox="0 0 10 10" refX="8" refY="5" markerWidth="6" markerHeight="6" orient="auto-start-reverse"><path d="M2 1L8 5L2 9" fill="none" stroke="#0F6E56" stroke-width="1.5" stroke-linecap="round" stroke-linejoin="round"/></marker>
</defs>
<rect x="40" y="40" width="600" height="430" rx="12" fill="none" stroke="#888780" stroke-width="0.7" stroke-dasharray="4 4"/>
<text x="60" y="66" font-size="14" font-weight="500" fill="#2C2C2A">NVLink 도메인 — all-to-all이 갇혀야 하는 범위</text>
<rect x="70" y="84" width="120" height="44" rx="6" fill="#F1EFE8" stroke="#5F5E5A" stroke-width="0.5"/>
<text x="130" y="106" font-size="14" font-weight="500" fill="#444441" text-anchor="middle" dominant-baseline="central">GPU 0 · 토큰</text>
<rect x="215" y="84" width="120" height="44" rx="6" fill="#F1EFE8" stroke="#5F5E5A" stroke-width="0.5"/>
<text x="275" y="106" font-size="14" font-weight="500" fill="#444441" text-anchor="middle" dominant-baseline="central">GPU 1 · 토큰</text>
<rect x="360" y="84" width="120" height="44" rx="6" fill="#F1EFE8" stroke="#5F5E5A" stroke-width="0.5"/>
<text x="420" y="106" font-size="14" font-weight="500" fill="#444441" text-anchor="middle" dominant-baseline="central">GPU 2 · 토큰</text>
<rect x="505" y="84" width="120" height="44" rx="6" fill="#F1EFE8" stroke="#5F5E5A" stroke-width="0.5"/>
<text x="565" y="106" font-size="14" font-weight="500" fill="#444441" text-anchor="middle" dominant-baseline="central">GPU 3 · 토큰</text>
<line x1="275" y1="128" x2="132" y2="196" stroke="#B4B2A9" stroke-width="1" opacity="0.45"/>
<line x1="275" y1="128" x2="563" y2="196" stroke="#B4B2A9" stroke-width="1" opacity="0.45"/>
<line x1="420" y1="128" x2="277" y2="196" stroke="#B4B2A9" stroke-width="1" opacity="0.45"/>
<line x1="420" y1="128" x2="565" y2="196" stroke="#B4B2A9" stroke-width="1" opacity="0.45"/>
<line x1="565" y1="128" x2="422" y2="196" stroke="#B4B2A9" stroke-width="1" opacity="0.45"/>
<line x1="565" y1="128" x2="279" y2="196" stroke="#B4B2A9" stroke-width="1" opacity="0.45"/>
<line x1="100" y1="128" x2="128" y2="192" stroke="#EF9F27" stroke-width="2.5" marker-end="url(#ma)"/>
<line x1="120" y1="128" x2="271" y2="192" stroke="#EF9F27" stroke-width="2" opacity="0.7" marker-end="url(#ma)"/>
<line x1="140" y1="128" x2="416" y2="192" stroke="#EF9F27" stroke-width="1.5" opacity="0.5" marker-end="url(#ma)"/>
<line x1="160" y1="128" x2="561" y2="192" stroke="#EF9F27" stroke-width="1" opacity="0.4" marker-end="url(#ma)"/>
<rect x="70" y="200" width="120" height="56" rx="8" fill="#E1F5EE" stroke="#0F6E56" stroke-width="0.5"/>
<text x="130" y="218" font-size="14" font-weight="500" fill="#085041" text-anchor="middle" dominant-baseline="central">전문가 0–63</text>
<text x="130" y="238" font-size="12" fill="#0F6E56" text-anchor="middle" dominant-baseline="central">가중치는 제자리</text>
<rect x="215" y="200" width="120" height="56" rx="8" fill="#E1F5EE" stroke="#0F6E56" stroke-width="0.5"/>
<text x="275" y="218" font-size="14" font-weight="500" fill="#085041" text-anchor="middle" dominant-baseline="central">전문가 64–127</text>
<text x="275" y="238" font-size="12" fill="#0F6E56" text-anchor="middle" dominant-baseline="central">가중치는 제자리</text>
<rect x="360" y="200" width="120" height="56" rx="8" fill="#E1F5EE" stroke="#0F6E56" stroke-width="0.5"/>
<text x="420" y="218" font-size="14" font-weight="500" fill="#085041" text-anchor="middle" dominant-baseline="central">전문가 128–191</text>
<text x="420" y="238" font-size="12" fill="#0F6E56" text-anchor="middle" dominant-baseline="central">가중치는 제자리</text>
<rect x="505" y="200" width="120" height="56" rx="8" fill="#E1F5EE" stroke="#0F6E56" stroke-width="0.5"/>
<text x="565" y="218" font-size="14" font-weight="500" fill="#085041" text-anchor="middle" dominant-baseline="central">전문가 192–255</text>
<text x="565" y="238" font-size="12" fill="#0F6E56" text-anchor="middle" dominant-baseline="central">가중치는 제자리</text>
<line x1="130" y1="260" x2="100" y2="324" stroke="#0F6E56" stroke-width="2.5" marker-end="url(#mt)"/>
<line x1="275" y1="260" x2="120" y2="324" stroke="#0F6E56" stroke-width="2" opacity="0.7" marker-end="url(#mt)"/>
<line x1="420" y1="260" x2="140" y2="324" stroke="#0F6E56" stroke-width="1.5" opacity="0.5" marker-end="url(#mt)"/>
<line x1="565" y1="260" x2="160" y2="324" stroke="#0F6E56" stroke-width="1" opacity="0.4" marker-end="url(#mt)"/>
<line x1="130" y1="260" x2="273" y2="324" stroke="#B4B2A9" stroke-width="1" opacity="0.45"/>
<line x1="420" y1="260" x2="563" y2="324" stroke="#B4B2A9" stroke-width="1" opacity="0.45"/>
<line x1="565" y1="260" x2="422" y2="324" stroke="#B4B2A9" stroke-width="1" opacity="0.45"/>
<rect x="70" y="328" width="120" height="44" rx="6" fill="#F1EFE8" stroke="#5F5E5A" stroke-width="0.5"/>
<text x="130" y="350" font-size="14" font-weight="500" fill="#444441" text-anchor="middle" dominant-baseline="central">GPU 0 · 결과</text>
<rect x="215" y="328" width="120" height="44" rx="6" fill="#F1EFE8" stroke="#5F5E5A" stroke-width="0.5"/>
<text x="275" y="350" font-size="14" font-weight="500" fill="#444441" text-anchor="middle" dominant-baseline="central">GPU 1 · 결과</text>
<rect x="360" y="328" width="120" height="44" rx="6" fill="#F1EFE8" stroke="#5F5E5A" stroke-width="0.5"/>
<text x="420" y="350" font-size="14" font-weight="500" fill="#444441" text-anchor="middle" dominant-baseline="central">GPU 2 · 결과</text>
<rect x="505" y="328" width="120" height="44" rx="6" fill="#F1EFE8" stroke="#5F5E5A" stroke-width="0.5"/>
<text x="565" y="350" font-size="14" font-weight="500" fill="#444441" text-anchor="middle" dominant-baseline="central">GPU 3 · 결과</text>
<line x1="120" y1="412" x2="150" y2="412" stroke="#EF9F27" stroke-width="2.5"/>
<text x="158" y="416" font-size="12" fill="#5F5E5A">dispatch — 토큰이 전문가로</text>
<line x1="370" y1="412" x2="400" y2="412" stroke="#0F6E56" stroke-width="2.5"/>
<text x="408" y="416" font-size="12" fill="#5F5E5A">combine — 결과 원위치로</text>
<text x="340" y="500" font-size="12" fill="#5F5E5A" text-anchor="middle">가중치는 고정, 토큰이 이동 — 이 왕복이 MoE 레이어마다 발생</text>
</svg>
