<svg xmlns="http://www.w3.org/2000/svg" width="680" viewBox="0 0 680 620" font-family="sans-serif">
<rect width="680" height="620" fill="#ffffff"/>
<defs>
<marker id="mg" viewBox="0 0 10 10" refX="8" refY="5" markerWidth="6" markerHeight="6" orient="auto-start-reverse"><path d="M2 1L8 5L2 9" fill="none" stroke="#73726c" stroke-width="1.5" stroke-linecap="round" stroke-linejoin="round"/></marker>
</defs>
<rect x="45" y="16" width="455" height="462" rx="12" fill="none" stroke="#888780" stroke-width="0.7" stroke-dasharray="4 4"/>
<text x="62" y="36" font-size="12" fill="#5F5E5A">Vera Rubin Superchip — 랙당 36개</text>
<rect x="70" y="60" width="160" height="56" rx="8" fill="#F1EFE8" stroke="#5F5E5A" stroke-width="0.5"/>
<text x="150" y="78" font-size="14" font-weight="500" fill="#444441" text-anchor="middle" dominant-baseline="central">LPDDR5X</text>
<text x="150" y="98" font-size="12" fill="#5F5E5A" text-anchor="middle" dominant-baseline="central">1.5TB · SOCAMM</text>
<line x1="150" y1="120" x2="150" y2="186" stroke="#73726c" stroke-width="1.5" marker-start="url(#mg)" marker-end="url(#mg)"/>
<text x="160" y="156" font-size="12" fill="#5F5E5A">1.2 TB/s</text>
<rect x="70" y="190" width="160" height="56" rx="8" fill="#EEEDFE" stroke="#534AB7" stroke-width="0.5"/>
<text x="150" y="208" font-size="14" font-weight="500" fill="#3C3489" text-anchor="middle" dominant-baseline="central">Vera CPU</text>
<text x="150" y="228" font-size="12" fill="#534AB7" text-anchor="middle" dominant-baseline="central">Olympus 88코어</text>
<rect x="330" y="40" width="150" height="56" rx="8" fill="#F1EFE8" stroke="#5F5E5A" stroke-width="0.5"/>
<text x="405" y="58" font-size="14" font-weight="500" fill="#444441" text-anchor="middle" dominant-baseline="central">HBM4</text>
<text x="405" y="78" font-size="12" fill="#5F5E5A" text-anchor="middle" dominant-baseline="central">288GB</text>
<line x1="405" y1="100" x2="405" y2="116" stroke="#73726c" stroke-width="1.5" marker-start="url(#mg)" marker-end="url(#mg)"/>
<text x="415" y="111" font-size="12" fill="#5F5E5A">22 TB/s</text>
<rect x="330" y="120" width="150" height="56" rx="8" fill="#E1F5EE" stroke="#0F6E56" stroke-width="0.5"/>
<text x="405" y="138" font-size="14" font-weight="500" fill="#085041" text-anchor="middle" dominant-baseline="central">R200 GPU</text>
<text x="405" y="158" font-size="12" fill="#0F6E56" text-anchor="middle" dominant-baseline="central">레티클 다이 ×2</text>
<rect x="330" y="310" width="150" height="56" rx="8" fill="#E1F5EE" stroke="#0F6E56" stroke-width="0.5"/>
<text x="405" y="328" font-size="14" font-weight="500" fill="#085041" text-anchor="middle" dominant-baseline="central">R200 GPU</text>
<text x="405" y="348" font-size="12" fill="#0F6E56" text-anchor="middle" dominant-baseline="central">레티클 다이 ×2</text>
<rect x="330" y="390" width="150" height="56" rx="8" fill="#F1EFE8" stroke="#5F5E5A" stroke-width="0.5"/>
<text x="405" y="408" font-size="14" font-weight="500" fill="#444441" text-anchor="middle" dominant-baseline="central">HBM4</text>
<text x="405" y="428" font-size="12" fill="#5F5E5A" text-anchor="middle" dominant-baseline="central">288GB</text>
<line x1="405" y1="370" x2="405" y2="386" stroke="#73726c" stroke-width="1.5" marker-start="url(#mg)" marker-end="url(#mg)"/>
<text x="415" y="381" font-size="12" fill="#5F5E5A">22 TB/s</text>
<path d="M230 218 L272 218 L272 148 L326 148" fill="none" stroke="#73726c" stroke-width="1.5" marker-end="url(#mg)"/>
<path d="M230 218 L272 218 L272 338 L326 338" fill="none" stroke="#73726c" stroke-width="1.5" marker-end="url(#mg)"/>
<text x="280" y="242" font-size="12" fill="#5F5E5A">NVLink-C2C</text>
<text x="280" y="260" font-size="12" fill="#5F5E5A">1.8 TB/s 코히런트</text>
<rect x="550" y="180" width="90" height="140" rx="8" fill="#FAECE7" stroke="#993C1D" stroke-width="0.5"/>
<text x="595" y="238" font-size="14" font-weight="500" fill="#712B13" text-anchor="middle" dominant-baseline="central">NVLink 6</text>
<text x="595" y="260" font-size="12" fill="#993C1D" text-anchor="middle" dominant-baseline="central">스위치</text>
<path d="M480 148 L595 148 L595 176" fill="none" stroke="#73726c" stroke-width="1.5" marker-end="url(#mg)"/>
<path d="M480 338 L595 338 L595 324" fill="none" stroke="#73726c" stroke-width="1.5" marker-end="url(#mg)"/>
<text x="538" y="134" font-size="12" fill="#5F5E5A" text-anchor="middle">NVLink 6 · 3.6 TB/s</text>
<text x="545" y="362" font-size="12" fill="#5F5E5A" text-anchor="middle">NVLink 6 · 3.6 TB/s</text>
<line x1="150" y1="250" x2="150" y2="496" stroke="#73726c" stroke-width="1.5" marker-end="url(#mg)"/>
<text x="160" y="380" font-size="12" fill="#5F5E5A">PCIe Gen6</text>
<rect x="70" y="500" width="160" height="56" rx="8" fill="#F1EFE8" stroke="#5F5E5A" stroke-width="0.5"/>
<text x="150" y="518" font-size="14" font-weight="500" fill="#444441" text-anchor="middle" dominant-baseline="central">ConnectX-9</text>
<text x="150" y="538" font-size="12" fill="#5F5E5A" text-anchor="middle" dominant-baseline="central">GPU당 1.6 Tb/s</text>
<line x1="150" y1="560" x2="150" y2="584" stroke="#73726c" stroke-width="1.5" marker-end="url(#mg)"/>
<text x="150" y="602" font-size="12" fill="#5F5E5A" text-anchor="middle">랙 밖 — IB / Spectrum-X</text>
</svg>
